<?xml version="1.0" standalone="no"?>
<!DOCTYPE svg PUBLIC "-//W3C//DTD SVG 20010904//EN"
 "http://www.w3.org/TR/2001/REC-SVG-20010904/DTD/svg10.dtd">
<svg version="1.0" xmlns="http://www.w3.org/2000/svg"
 width="96.000000pt" height="96.000000pt" viewBox="0 0 96.000000 96.000000"
 preserveAspectRatio="xMidYMid meet">
<metadata>
Created by potrace 1.14, written by Peter Selinger 2001-2017
</metadata>
<g transform="translate(0.000000,96.000000) scale(0.100000,-0.100000)"
fill="#000000" stroke="none">
<path d="M205 863 c-38 -19 -73 -41 -77 -47 -12 -17 -10 -694 2 -701 5 -3 41
10 80 30 l70 35 80 -40 80 -40 180 0 c106 0 189 4 201 10 18 10 19 25 19 348
0 250 -3 341 -12 350 -8 8 -67 12 -200 12 l-188 0 -80 40 c-44 22 -81 40 -82
40 -2 -1 -34 -17 -73 -37z"/>
</g>
</svg>
